<svg id="Layer_1" data-name="Layer 1" xmlns="http://www.w3.org/2000/svg" viewBox="0 0 1821.21 974.53"><defs><style>.cls-1{fill:#fae0b2;}.cls-2{fill:#f7cc7f;}.cls-24,.cls-3{fill:#466eb6;}.cls-4{fill:#f48c7f;}.cls-5{fill:#50bfa5;}.cls-6{fill:#86b1f2;}.cls-7{fill:#b75742;}.cls-27,.cls-8{fill:#f47458;}.cls-9{fill:#fbb03b;}.cls-10{fill:#fff3d9;}.cls-11{fill:#fed333;}.cls-12{fill:#f7a491;}.cls-13{fill:#3c8f7c;}.cls-14{fill:#f47257;}.cls-15{fill:#efefef;}.cls-16{fill:#13375b;}.cls-17{fill:#355389;}.cls-18{fill:#ff7345;}.cls-19{fill:#f8a492;}.cls-20{fill:#184655;}.cls-21{fill:#96d9c9;}.cls-22{fill:#07345a;}.cls-23{fill:#fff;}.cls-24{font-size:54.36px;}.cls-24,.cls-27{font-family:CooperBlack, Cooper Black;}.cls-25{letter-spacing:-0.01em;}.cls-26{letter-spacing:-0.01em;}.cls-27{font-size:80.33px;}</style></defs><title>accepted</title><path class="cls-1" d="M872.85,663.34S848,674.63,834.21,699.13s-16.64,58.42-16.64,58.42L860,758S834.08,725.77,872.85,663.34Z" transform="translate(0 0)"/><path class="cls-2" d="M885.33,680.16l-9-21.33-22.68-4.66a3.18,3.18,0,0,1-1.44-5.52l17.49-15.17-2.57-23a3.18,3.18,0,0,1,4.8-3.08l19.83,12,21.09-9.57a3.18,3.18,0,0,1,4.41,3.62L912,636l15.61,17.1a3.18,3.18,0,0,1-2.08,5.31l-23.06,2L891,680.49A3.19,3.19,0,0,1,885.33,680.16Z" transform="translate(0 0)"/><path class="cls-3" d="M794.6,387l8.09-13.66L796,358.92a2.18,2.18,0,0,1,2.45-3l15.5,3.47,11.64-10.8a2.18,2.18,0,0,1,3.65,1.4l1.49,15.8,13.86,7.74a2.18,2.18,0,0,1-.19,3.91l-14.58,6.3-3.07,15.57a2.18,2.18,0,0,1-3.78,1L812.5,388.38l-15.76,1.89A2.18,2.18,0,0,1,794.6,387Z" transform="translate(0 0)"/><polygon class="cls-4" points="945.07 480.78 928.88 491.59 937.93 507.31 922.46 518.66 929.25 534.75 919.06 545.13 924.32 550.29 937.96 536.4 931.51 521.15 947.61 509.35 938.71 493.89 953.38 484.1 945.07 480.78"/><polygon class="cls-4" points="1053.53 562.54 1034.77 557.37 1028.81 574.51 1010.09 570.23 1002.38 585.9 987.85 584.99 987.39 592.34 1006.82 593.56 1014.13 578.71 1033.6 583.16 1039.46 566.31 1056.46 571 1053.53 562.54"/><polygon class="cls-4" points="563.84 53.36 553.56 36.83 537.56 45.37 526.72 29.53 510.41 35.81 500.36 25.28 495.03 30.37 508.48 44.45 523.93 38.5 535.21 54.98 550.95 46.58 560.26 61.56 563.84 53.36"/><polygon class="cls-2" points="981.86 648.25 989.27 662.09 1005.25 661.19 1012.46 677.29 1029.19 671.09 1038.14 688.94 1054.25 685.13 1065.68 700.89 1059.71 705.21 1051.17 693.43 1034.17 697.45 1025.56 680.29 1008.55 686.6 1000.6 668.83 984.99 669.71 978.12 656.88 967.99 659.6 966.08 652.48 981.86 648.25"/><polygon class="cls-5" points="793.78 697.35 781.98 698.55 777.96 679.78 760.49 679.4 755.18 665.85 748.33 668.54 755.42 686.66 771.97 687.02 776.16 706.54 793.91 704.74 793.78 697.35"/><polygon class="cls-5" points="1236.34 98.75 1231.92 109.75 1213.43 104.61 1204.99 119.9 1190.52 118.31 1189.71 125.64 1209.07 127.76 1217.06 113.27 1236.3 118.62 1242.94 102.06 1236.34 98.75"/><path class="cls-6" d="M1009.81,805.13c-5.46,1.08-27.27,30.3-27.27,30.3l-.77,2s39.46-4.39,40.89-6.08C1026.51,826.82,1014.29,804.25,1009.81,805.13Zm-27,30.92c7.2-9.2,23.6-22.64,27.15-25.49,3.16,3.23,7.93,12.75,8.56,17.06C1014,828.55,994.33,834.66,982.82,836.05Z" transform="translate(0 0)"/><path class="cls-6" d="M957,810.12c-10.74-7-13.68-7-16.81-5.18s-14.66,18.32-9.5,23.48,46,8.84,46,8.84l.93-2.5S967.69,817.12,957,810.12ZM937.75,826.6c-2.38-2.37,3.55-12.28,6.26-14.39.69-.39,28.19,17.12,32,23.09C960.69,833.64,940,828.58,937.75,826.6Z" transform="translate(0 0)"/><rect class="cls-6" x="972.88" y="829.99" width="10.56" height="15.02" rx="4.13" ry="4.13"/><path class="cls-7" d="M1064.22,837.57l-187-.56a8.12,8.12,0,0,0-8,9.34L872,865.44l9.37,0,5.65,96a9.73,9.73,0,0,0,9.71,9.15h149.28l6.2-105.55,8.84,0Z" transform="translate(0 0)"/><path class="cls-8" d="M1049.24,970.61H934.66l-6.14-131.05h136.14L1059,961.5A9.65,9.65,0,0,1,1049.24,970.61Z" transform="translate(0 0)"/><path class="cls-4" d="M1070.28,865.11l-147.79.39-3.37-28.44,144.77.56a8.12,8.12,0,0,1,8.06,8.84Z" transform="translate(0 0)"/><polygon class="cls-7" points="922.49 865.5 1063.45 865.11 926.96 872.56 922.49 865.5"/><rect class="cls-6" x="977.95" y="837.28" width="3.92" height="28.08"/><rect class="cls-6" x="989.32" y="865.24" width="4.9" height="105.57"/><rect class="cls-1" x="747.43" y="774.26" width="151.66" height="196.34"/><rect class="cls-2" x="766" y="774.26" width="5.49" height="196.34"/><rect class="cls-2" x="782.21" y="774.26" width="5.49" height="196.34"/><rect class="cls-2" x="798.42" y="774.26" width="5.49" height="196.34"/><rect class="cls-2" x="814.63" y="774.26" width="5.49" height="196.34"/><rect class="cls-2" x="830.84" y="774.26" width="5.49" height="196.34"/><rect class="cls-2" x="847.05" y="774.26" width="5.49" height="196.34"/><rect class="cls-2" x="863.26" y="774.26" width="5.49" height="196.34"/><rect class="cls-2" x="879.48" y="774.26" width="5.49" height="196.34"/><rect class="cls-2" x="747.43" y="774.25" width="151.64" height="8.09"/><path class="cls-5" d="M623.09,713.06c4.84,5,50.19,7.78,50.19,7.78l2.64-.57s-31.49-38.17-34.22-38.51C634.32,680.84,619.11,709,623.09,713.06Zm50.66,7.07C659.24,718.9,634,711,628.64,709.19c1.21-5.5,7.9-17,12-20.57C644.67,692.72,664.44,709.07,673.75,720.13Z" transform="translate(0 0)"/><path class="cls-5" d="M664.33,764.8c0,16,2.09,19,6.07,21.06s29.11,2.8,31-6.1S679.2,725.7,679.2,725.7l-3.24.75S664.32,748.82,664.33,764.8Zm30.3,8.79c-.85,4.11-15.24,4.68-19.28,3.29-.88-.45-1.38-41.09,2.24-49.17C686.33,744.86,695.18,769.93,694.63,773.59Z" transform="translate(0 0)"/><rect class="cls-5" x="669.08" y="717.42" width="18.73" height="13.16" rx="5.15" ry="5.15" transform="translate(-285.59 489.29) rotate(-33.18)"/><rect class="cls-9" x="601.71" y="688.55" width="175.71" height="35.04" transform="translate(407.37 1651.79) rotate(-119.06)"/><path class="cls-10" d="M710.15,360.43a32.85,32.85,0,1,1-46.44,1A32.85,32.85,0,0,1,710.15,360.43Z" transform="translate(0 0)"/><path class="cls-11" d="M709.43,387.89l-14,4.3-4.39,13.94a1.42,1.42,0,0,1-2.52.39l-8.41-12-14.62.14a1.42,1.42,0,0,1-1.15-2.28l8.78-11.69-4.65-13.86a1.42,1.42,0,0,1,1.81-1.8l13.83,4.74,11.75-8.71a1.42,1.42,0,0,1,2.27,1.17l-.23,14.62,11.91,8.48A1.42,1.42,0,0,1,709.43,387.89Z" transform="translate(0 0)"/><path class="cls-10" d="M1183.53,172a32.85,32.85,0,1,1-46.44,1A32.84,32.84,0,0,1,1183.53,172Z" transform="translate(0 0)"/><path class="cls-11" d="M1182.81,199.48l-14,4.3-4.39,13.94a1.42,1.42,0,0,1-2.52.39l-8.41-12-14.62.14a1.42,1.42,0,0,1-1.15-2.28l8.78-11.69-4.65-13.86a1.42,1.42,0,0,1,1.81-1.8l13.83,4.74,11.75-8.71a1.42,1.42,0,0,1,2.27,1.17l-.23,14.62,11.91,8.48A1.42,1.42,0,0,1,1182.81,199.48Z" transform="translate(0 0)"/><path class="cls-8" d="M840.37,245.65l7.69,12.79a2,2,0,0,0,3.49-.29L857,244.26l14.54-3.37a2,2,0,0,0,.8-3.41L860.84,228l1.29-14.87a2,2,0,0,0-3-1.81l-12.58,8-13.74-5.82a2,2,0,0,0-2.65,2.29l3.74,14.45-9.79,11.27a2,2,0,0,0,1.36,3.22Z" transform="translate(0 0)"/><path class="cls-12" d="M510.68,791.15A190.8,190.8,0,0,1,490,816.68c-.63.59-4.83,1.94-5.5,2.54-5.89,18.63,1.69,34.46,9.81,46.92,1.35-10.1,2.31-23.9,3.86-25.6,2.47-2.72,10.92-14.36,28-28.73C517.13,806.76,516.06,799.89,510.68,791.15Z" transform="translate(0 0)"/><path class="cls-3" d="M489.49,817c-6.65.4-19.26,4.56-19.19,5.89.09,1.58,7.22,56.52,15.9,61.35,5.22,2.91,6.19-5.64,8.1-18.1C486.17,853.68,485.79,820.16,489.49,817Z" transform="translate(0 0)"/><path class="cls-12" d="M372.65,765.48c-13.93,8.32-27.74,14.63-29.45,15.19-.82.27-5.2-.3-6.06,0C323.88,795,324,812.52,326.05,827.25c5.51-8.56,12.26-20.63,14.39-21.51a269.46,269.46,0,0,1,37.19-12.48C371.65,784.86,373.79,775.67,372.65,765.48Z" transform="translate(0 0)"/><path class="cls-12" d="M525.05,395.74s21.05-39.62,24.17-53.81,13.91-85.65,13-90.25-18-15.67-15.87-19.58,18.36-3.92,22.08-3.59,11.2,2.51,14.41,5.15-3.6,88.27-5.63,106.71-32.91,78.84-32.91,78.84Z" transform="translate(0 0)"/><path class="cls-12" d="M430.42,453S387.5,521.72,380,535.23s-35.43,47.9-36.83,49.56-30.95.16-30.11,3.58,14.41,0,14.67,4.06S304.39,622,306.76,623c4.42,1.93,15-15.08,16.93-13.79s-12.7,16.74-10.32,20,12.47-15.9,14.36-15.68-7.1,19.32-3,19.51c2.25.1,7.59-17.17,9.72-15.64s.08,15.35,2.68,15.22.18-11.81,4.16-18S345,602,354.21,594.06s44.72-32.24,57.6-53.68,41.47-68.76,41.47-68.76Z" transform="translate(0 0)"/><path class="cls-13" d="M533,555.22l-74.53,24s41,69.72,49.1,83.61,43,48.21,43.05,57.19c0,6.35-32.85,48.48-52.68,74.18,4.48,8.33,16.72,19.06,24.48,23.8,33-31.3,81.18-80.66,82.07-96.84C605.75,697.54,533,555.22,533,555.22Z" transform="translate(0 0)"/><path class="cls-3" d="M342.58,780.74c-6.19-2.47-19.32-4.07-19.82-2.84-.59,1.47-17.53,54.21-11.73,62.28,3.49,4.86,8-2.47,15-12.93C324,812.52,338.46,781.1,342.58,780.74Z" transform="translate(0 0)"/><path class="cls-5" d="M517.67,598.24c1-4.59,7.09-18.08,10.26-28.81A58.9,58.9,0,0,0,529.35,542h0l-54.82-2.55-2.1,4.08A33.22,33.22,0,0,1,463,554.8c-8.21,6.2-22.62,19.82-22.18,38.77C441.46,620,460.28,717,454,720.61c-11.3,6.54-58.43,29.48-86.56,43.58.39,10.25,3.26,24.86,8.6,33.68,22.28-8.53,100.69-43.24,115.27-51.74C497.92,742.29,516.06,606,517.67,598.24Z" transform="translate(0 0)"/><path class="cls-8" d="M385.22,289.73c4.35,11.49-2.53,20-7.31,31.36-3.21,7.6,3.87,19.66,11.87,25.21,20.27,14.07,25,14.44,23.56,33.54-3.53,46,51.5,26.41,60.35,25s15.53-1.07,19.76-4c12.75-8.82,24.71-35.31,22.47-57.62S487.1,328.52,481,318.28s12.28-23-3.37-40.12C432.72,229,385.8,262,384.13,280.77A19.86,19.86,0,0,0,385.22,289.73Z" transform="translate(0 0)"/><path class="cls-2" d="M539.62,452.3s15.3-36.33,17.75-42.37c0,0-21.36-19-34.11-17.54,0,0-16.52,25.95-26.26,26.89s-44,2.39-50,6S415.5,467.2,415.5,467.2s22.9,22.94,32.11,22.9c0,0,6.26-15.5,8.4-12.67s10.61,63,14.88,67.6c4,4.24,51.94,20.43,65.79,17.46,0,0,7.46-58,7.06-93.62C543.68,463.42,539.62,452.3,539.62,452.3Z" transform="translate(0 0)"/><path class="cls-12" d="M472.81,402.22s5.41,17.86,5.45,25.13,5.82,30.09,21.05,28.59-.15-29.76-2.31-36.66-4.76-28.68-4.76-28.68Z" transform="translate(0 0)"/><path class="cls-8" d="M493.69,401.51c-.86-5.94-1.45-10.91-1.45-10.91l-19.43,11.62s1.11,3.65,2.32,8.32C484.25,411.42,490.39,407.44,493.69,401.51Z" transform="translate(0 0)"/><path class="cls-12" d="M460.15,352.67a25.45,25.45,0,0,0-9.31,14.93c-1.9,9.76,3.9,33.82,24.82,37.61s27.73-16.44,22-31.12S480.82,341.22,460.15,352.67Z" transform="translate(0 0)"/><path class="cls-12" d="M499.59,368c0,4.1-1.9,7.44-4.29,7.45s-4.34-3.3-4.36-7.4,1.9-7.43,4.28-7.44S499.56,363.88,499.59,368Z" transform="translate(0 0)"/><path class="cls-12" d="M459.93,388.39c2.76,3.3,3.18,7.49.95,9.35s-6.27.69-9-2.61-3.18-7.48-.95-9.34S457.18,385.09,459.93,388.39Z" transform="translate(0 0)"/><path class="cls-14" d="M561,232.26a8.34,8.34,0,0,0-1.27.94l-2.34,2.11h0c2.15.51,5.72.1,9.05,2.61C566.46,237.92,565.8,235.2,561,232.26Z" transform="translate(0 0)"/><path class="cls-8" d="M597.39,111.35c-5,1-25.12,27.91-25.12,27.91l-.71,1.87s36.35-4,37.66-5.6C612.78,131.34,601.52,110.54,597.39,111.35Zm-24.87,28.49c6.64-8.48,21.75-20.86,25-23.49,2.92,3,7.31,11.76,7.89,15.72C601.25,132.93,583.13,138.55,572.52,139.84Z" transform="translate(0 0)"/><path class="cls-8" d="M555.24,105.83c-7.84-10.62-12-8.83-15-7.55s-14,15-10.56,22.19,37.41,21.25,37.41,21.25l1.22-2.64S563.08,116.45,555.24,105.83Zm-21.53,12.7c-1.72-3.57,5.59-14.32,8.46-16.23a5.15,5.15,0,0,1,1.84-.55c.63,0,3,.48,7.65,6.72,5,6.81,13.06,23.61,15,30.67C553,133.07,535.35,121.56,533.71,118.53Z" transform="translate(0 0)"/><path class="cls-8" d="M568.66,135.66h1.63a2.92,2.92,0,0,1,2.92,2.92v4.8a2.92,2.92,0,0,1-2.92,2.92h-1.63a2.92,2.92,0,0,1-2.92-2.92v-4.8A2.93,2.93,0,0,1,568.66,135.66Z"/><path class="cls-2" d="M624.51,235.31H521.22a10.59,10.59,0,0,1-10.57-9.9l-5.42-83H639.75l-5.65,86.41C633.87,232.47,629.64,235.31,624.51,235.31Z" transform="translate(0 0)"/><path class="cls-1" d="M645.3,160.54l-146,.28-1.56-9.39a9.22,9.22,0,0,1,9.13-10.73l132.14.36c4.7,0,8.37,2.91,8,6.27Z" transform="translate(0 0)"/><rect class="cls-8" x="569.33" y="140.83" width="2.78" height="19.9"/><rect class="cls-8" x="572.14" y="160.64" width="3.47" height="74.81"/><path class="cls-12" d="M558.77,240.59l-1.31-5.22a30.1,30.1,0,0,1-9.45-1.5l-3.64-1.58a2.24,2.24,0,0,0-3,1.21h0a2.25,2.25,0,0,0,.68,2.61s9.84,8.1,13.3,10.56c1.71,1.22,7.1,4.51,7.1,4.51l3.14-5.88Z" transform="translate(0 0)"/><path class="cls-5" d="M706,585.33a6.68,6.68,0,1,1-6.66-6.1A6.4,6.4,0,0,1,706,585.33Z" transform="translate(0 0)"/><path class="cls-5" d="M973.07,724.43a7.23,7.23,0,1,1-7.21-6.66A7,7,0,0,1,973.07,724.43Z" transform="translate(0 0)"/><path class="cls-1" d="M736,459.53c46.29,8.62,79.52,38.66,74.22,67.09-2.64,14.22-14.42,25.34-31.32,31.83l11,45.43-33.46-40a129.79,129.79,0,0,1-39.58-1.42c-46.29-8.62-79.52-38.66-74.23-67.09S689.73,450.91,736,459.53Z" transform="translate(0 0)"/><path class="cls-2" d="M757.22,522a29.71,29.71,0,1,1-13.92-39.65A29.71,29.71,0,0,1,757.22,522Z" transform="translate(0 0)"/><path class="cls-15" d="M714.08,506.51a15.89,15.89,0,0,0,28.64,13.76Z" transform="translate(0 0)"/><path class="cls-1" d="M1004.09,262.32c-60.7-3.9-124.64,55.05-126.92,90.56-1.14,17.75,10.13,34.61,29.27,47.52l-34.56,78.15,61-64.75A175.49,175.49,0,0,0,983,424.22c60.7,3.9,111.76-21.72,114-57.22S1064.8,266.22,1004.09,262.32Z" transform="translate(0 0)"/><path class="cls-1" d="M1024,484.34l10.72,2.11s15.67-7.32,16.87-10.85.64-11.66,2.94-12.16a7.07,7.07,0,0,1,8.63,5.08c1.28,3.91-3.16,16.24-2.09,17.36.67.7,6.8,2.09,11.29,3a8.08,8.08,0,0,1,6.12,5.81h0a4.45,4.45,0,0,1-2.17,5.09l-2.82,1.52,1.33,2.94a4.45,4.45,0,0,1-2.12,5.82l-2.19,1.06,1,1.77a4.45,4.45,0,0,1-2.12,6.19l-1.93.83.15.53a4.46,4.46,0,0,1-2.6,5.34l-1.93.76L1034.52,521a19.72,19.72,0,0,1-7.45-3.17l-9.71-3.68a2.27,2.27,0,0,1-1.4-2.62l5.42-25.37A2.27,2.27,0,0,1,1024,484.34Z" transform="translate(0 0)"/><path class="cls-12" d="M305.9,264.26a18.14,18.14,0,0,0,2.92-5.84,6.15,6.15,0,0,0,0-2.82s2.32-2.29,2.54-3.22c.43-1.82-1.26-4.51-1.36-4.65-1.87-2.92-8.91-8.14-11.53-7.39s3.27,9.85,3.27,9.85-4.58-2.75-5.66.37S305.9,264.26,305.9,264.26Z" transform="translate(0 0)"/><path class="cls-12" d="M277.19,265.32l4.53-7.56s8.58-4.57,6.9-7.39c-2.79-4.7-15.18,4.72-15.18,4.72S273.37,259.59,277.19,265.32Z" transform="translate(0 0)"/><path class="cls-16" d="M1376.14,496.12c-4.63-21.29-22.38-36.58-43.18-36.08a46.25,46.25,0,0,0-25-24.63c-21.57-8.41-52.91-4.35-55.44,19.64-10.88,14.64-14.42,37.49-2.92,51.8-7.62,20.81,9.39,44.85,35.4,48.26,6.92,16.51,22.75,29,40.13,29.65,4.17.16,10.57.13,11.57.55-1.27-.45,24.36,26.5,53.55-3.91C1420,550.36,1408.47,505.14,1376.14,496.12Z" transform="translate(0 0)"/><path class="cls-12" d="M1233.86,510.11s-71.06-34.29-71.41-35.68c-.51-2,24-28.88,36.84-31.08,9.83-1.68,21.9-11.27,21.9-11.27s-13.11-15.11-25.58-12.62S1184,432.17,1184,432.17s-33.46,18-52.9,35.73c-18.45,16.79,79.53,63,79.53,63Z" transform="translate(0 0)"/><path class="cls-12" d="M1196.45,876.94a206.47,206.47,0,0,0,8.93,32.57c.34.82,3.59,3.8,4,4.64-1.75,20-14.51,31.92-26.5,40.4,2.6-10.1,8.39-21.68,7.64-23.93a286,286,0,0,0-15.68-40.42C1184.78,889.08,1188.33,883,1196.45,876.94Z" transform="translate(0 0)"/><path class="cls-17" d="M1239.93,638.64l62.25,47.28s-30.82,29.65-42.38,40.67-76.34,53.25-77.34,55.77c-.75,1.87,5.74,25.57,20.62,101.46-6.58,6.72-21.07,13.31-29.65,15.49C1151.85,858.12,1135,773.63,1135,764.09,1135,748.55,1239.93,638.64,1239.93,638.64Z" transform="translate(0 0)"/><path class="cls-12" d="M1414.54,733c-2,2-15.55,28.31-20.69,42.4-7.53-4.74-12.08-10.39-20.49-13.58,6.64-9.6,19.57-32.7,20.64-38.2,2.52-13,5.48-15,5.48-15s43.73,14.79,46.64,18.94S1422.71,725,1414.54,733Z" transform="translate(0 0)"/><path class="cls-13" d="M1393.49,726.48c-3.39,0,.29-15.33,1.07-18.86.87-4,3.17-5.16,3.75-5.3,1.55-.39,50.15,16.06,58.36,22a10.1,10.1,0,0,1,1.71,2c4.49,8.39-35.57,10-41.34,6.32C1411.91,729.29,1408.75,726.44,1393.49,726.48Z" transform="translate(0 0)"/><path class="cls-3" d="M1226.64,652.6s58.66-23.1,59.42-20.64c6.07,19.56,27.57,13.25,38.79,47.71,4.7,14.43,5.79,52.52,9,80.77,2.18,19.41,5.22,35,5.22,35s13.58-16,39.15-44.79c2-2.23,22.61,13.3,22.61,13.3-40.71,80.72-70.67,92.8-76.89,89.94-42.07-19.3-76.5-163.86-76.44-163.85C1242.68,680.69,1226.64,652.6,1226.64,652.6Z" transform="translate(0 0)"/><path class="cls-12" d="M1317.17,515.83s70-.09,85-1c13.58-.79,67.39.58,69.5.34s16-23.8,18.33-21.28-7.75,11.69-4.63,14.06,36.51-2.94,36.06-.47c-.83,4.62-20.31,4-20.29,6.26s20.39-1.25,21.77,2.45-19.6,1.51-20.43,3.16,19.45,4.68,17.38,8.13c-1.13,1.87-18-3.13-17.9-.58s12.38,8.35,10.87,10.38-9.65-6.23-16.79-6.33-12.24-3.83-23.63-.7c-5.63,1.54-48.57,6.79-84.85,9.89-37.19,3.18-67.68,4.19-67.68,4.19Z" transform="translate(0 0)"/><path class="cls-5" d="M1213.33,578.08c-.93-11.24,1.29-32.65,1.79-36.38-3.4-11.68-24.14-12.88-26.74-17.77,0,0,9.14-29.55,21.63-29.39,0,0,29.29,11.13,39.15,16.27.14,0,3.48,1.49,4.95,1.48,9.52-.06,42.77-1.07,49,.78l-3.52,51.38c-1.79,2.94-4.7,65.17-8.38,70s-56.46,23.85-65.33,18.14C1225.51,652.39,1215.21,600.81,1213.33,578.08Z" transform="translate(0 0)"/><path class="cls-5" d="M1285.77,514.26c6.13-2.93,50.94-2.83,50.94-2.83s6.2,30.9,1.19,38.33c0,0-39.69,5.91-38.56,9.16Z" transform="translate(0 0)"/><path class="cls-12" d="M1278.46,491.27s-7.2,16.67-8,23.68-8.94,28.43-23.49,25.31,3.43-28.74,6.28-35.17S1261,477.9,1261,477.9Z" transform="translate(0 0)"/><path class="cls-8" d="M1258.36,488.29c1.48-5.65,2.6-10.39,2.6-10.39l17.5,13.37s-1.48,3.41-3.17,7.79C1266.39,498.9,1260.9,494.38,1258.36,488.29Z" transform="translate(0 0)"/><path class="cls-12" d="M1301.53,450.76a24.76,24.76,0,0,1,4.06,16.63c-1.22,9.58-13.9,30.05-34.38,27.18s-20.61-23.63-10.83-35.44S1285.92,433.89,1301.53,450.76Z" transform="translate(0 0)"/><path class="cls-12" d="M1260.45,452.89c-1.27,3.78-.51,7.44,1.69,8.18s5-1.73,6.28-5.51.51-7.44-1.69-8.18S1261.72,449.11,1260.45,452.89Z" transform="translate(0 0)"/><path class="cls-13" d="M1205.53,910c1.25-3.15,13.92,6.89,16.91,8.93,3.36,2.29,3.61,4.87,3.53,5.46-.22,1.54-32.45,41.24-41.88,46.73a5.47,5.47,0,0,1-3.31.32c-5.24-2,3.28-34.51,10.16-40.92C1195.38,926.37,1199.89,924.18,1205.53,910Z" transform="translate(0 0)"/><path class="cls-16" d="M1299.9,448.71s-7.6,25.76-1.71,33.66-2.23,17.21-2.23,17.21,18.33-21.83,15.73-32.65S1299.9,448.71,1299.9,448.71Z" transform="translate(0 0)"/><path class="cls-12" d="M1292,483.77c-3.54,2.21-5.21,6-3.72,8.35s5.59,2.55,9.13.34,5.22-5.95,3.72-8.35S1295.52,481.56,1292,483.77Z" transform="translate(0 0)"/><path class="cls-18" d="M1251.39,422l1.36,3.73a5.27,5.27,0,0,1-1.81,6l-3.3,2.45a5.26,5.26,0,0,1-6.84-.49l-2.9-2.9Z" transform="translate(0 0)"/><path class="cls-16" d="M1233,427.88l-5.45-1.48-3.76,2s-24.42,10.88-29.26,10.89-8.57-8.79-7.4-10.44,17-5.66,17-5.66l9.84-8.9.55-6.45Z" transform="translate(0 0)"/><path class="cls-8" d="M1234.93,386l17.25,30.52a6.24,6.24,0,0,1-1.89,8.21l-10.42,7.19a6.24,6.24,0,0,1-8.19-1l-23-25.6Z" transform="translate(0 0)"/><path class="cls-8" d="M1236,385.46l-27.32,20.62a5.2,5.2,0,0,1-6.74-.39l-50.16-47.83,54.59-39.53,31.13,60.58A5.21,5.21,0,0,1,1236,385.46Z" transform="translate(0 0)"/><path class="cls-16" d="M1171.45,327.4c-15.5,10.56-25,23.58-21.28,29.08s19.35,1.4,34.85-9.16,25-23.59,21.28-29.08S1187,316.84,1171.45,327.4Z" transform="translate(0 0)"/><path class="cls-1" d="M1154.67,354.23c4.38,1,15.62-2.34,27.8-10.65,15.26-10.39,21-20.7,20.09-22.81h0a2.2,2.2,0,0,0-.76-.28c-4.39-1-15.62,2.34-27.81,10.65-15.25,10.39-21,20.69-20.08,22.81h0A2.2,2.2,0,0,0,1154.67,354.23Z" transform="translate(0 0)"/><path class="cls-12" d="M1191.16,421.29l6.47,2.42s4.23,1.87,5.19,5.54,5.62,2.82,4.33-1a38.11,38.11,0,0,0-2.62-6.17s5.27,7.21,5.81,7.26c3.06.32,3.52-4.19-1.7-9.31S1191.16,421.29,1191.16,421.29Z" transform="translate(0 0)"/><path class="cls-12" d="M1213,424s11.09,4.52,8.87,7.3-8.87,5.82-9,4.34,4.34-3.51,1.38-6.56C1213.34,428.27,1209.27,424,1213,424Z" transform="translate(0 0)"/><path class="cls-12" d="M1592.36,851.83s25.83,18.62,29.9,24.18c5.86,8-43.76,23-38.35,13.6,1.25-2.16,4.82-9.41,5-10.12.84-3.82-9.69-14.09-9.69-14.09Z" transform="translate(0 0)"/><path class="cls-2" d="M1570.49,905.27,1588,880.48s11-2.54,22.19-15.19c0,0,10.1,3.86,16.32,12.21a285.48,285.48,0,0,1-29.83,26.9,83,83,0,0,1-25.55,14.51C1556.33,923.92,1570.49,905.27,1570.49,905.27Z" transform="translate(0 0)"/><path class="cls-19" d="M1808.23,512.41s-3.17,2.81-4.3,3.66c-1.31,1-5.48,3.71-5.48,3.71s-15.08,8.58-15.59,7.45-.49-4.39.26-5.24,2.91-1.74,3.66-2.6a2.77,2.77,0,0,0,0-3.54c-1-1-6.11,1.86-6.11,1.86s-4.17,2.32-5.92,5.12c-6,9.7-4.21,10.27-5,11.49-1,1.45-22.1,11-22.1,11s-63.23,26.28-66.63,27.72h0c-.46,2.93,1.11,5.62,1.91,8.21,1.51,9,4.2,9.63,6.25,18.34,9.7-4.9,76.83-41.89,83.65-45.74,0,0,10.22-1.74,16.61-3s12-5.35,13.71-6a59.77,59.77,0,0,0,12.26-7.43c5.42-4.2-1.58-2.61-1.58-2.61s-11.38,6-11.68,5.07c-.23-.74,6.18-3.67,12.22-8.26,1.55-1.18,3.08-2.34,4.47-3.43,3.67-2.85,3-5.84-1.27-3.45a49.85,49.85,0,0,0-5.63,3.59,38.09,38.09,0,0,1-5.47,3.06,52.3,52.3,0,0,1-5.65,3.13c0-.23-.91-.31.7-1.61,1.94-1.56,6.77-4,9.44-6.52,1.52-1.42,4.87-4.21,4.87-4.21s4.29-5.14,4.08-5.48c-1.13-1.84-5,.88-6.85,3.07a32,32,0,0,0-5.3,3.87s-8.3,4.63-8.93,3.49c-.28-.48,4.49-3.91,8.65-8,3.86-3.79,7.17-8.22,6.55-9.06C1813,508.65,1808.23,512.41,1808.23,512.41Z" transform="translate(0 0)"/><path class="cls-7" d="M1631.87,660.42l-4.09,20.21-102.72,93.43,73.53,74.41-19.86,20.29s-108.59-79.74-112.5-90.19c-6-16.09,77.84-122.66,77.84-122.66Z" transform="translate(0 0)"/><path class="cls-12" d="M1703.85,905.6s25.83,18.62,29.9,24.18c5.86,8-43.77,23-38.35,13.6,1.25-2.16,4.82-9.41,5-10.12.84-3.82-9.69-14.09-9.69-14.09Z" transform="translate(0 0)"/><path class="cls-2" d="M1682,959.13l17.54-24.79s11.65-2.09,22.89-14.74A37.84,37.84,0,0,1,1738,931.36a286.32,286.32,0,0,1-29.84,26.9,82.82,82.82,0,0,1-25.55,14.51C1667.8,977.78,1682,959.13,1682,959.13Z" transform="translate(0 0)"/><path class="cls-8" d="M1628.35,669.79l-4.61,127.48,86.85,106.49-20.37,18.77S1589.4,836,1578.33,811.89c-6.86-14.95-30-150.09-30-150.09Z" transform="translate(0 0)"/><path class="cls-1" d="M1545.5,659.32c8.35-18.85,7.39-154,39.9-185.68,11.44,1.93,19.6,3,21.51,3.52,1.69,13.92,3.56,65,4.71,111.85.76,31.19,0,63.91,3.81,81.16C1617.82,680.86,1537.87,676.55,1545.5,659.32Z" transform="translate(0 0)"/><path class="cls-3" d="M1633.51,484.13c9.12,2.08,15.84,3.55,27.81,21.22,11.45,16.91,36.88,57.06,36.88,57.06l67-29.75,3.13,33.93s-75.77,39.39-86.46,35.83-40.75-47.48-43-50.45c-.53-.69,2.52,46.93,2.52,54.54s14.52,73.85,14.52,73.85-36.85,9.08-44.05-7.4c-22.06-50.53-5.12-195.85-5.12-195.85S1626.94,482.63,1633.51,484.13Z" transform="translate(0 0)"/><path class="cls-12" d="M1494.11,339.35c2.48-2.7,3-8.47,2.93-12.13l.61-4.94c-1.19-.31-23.75-.52-30.46.19a12.38,12.38,0,0,0-.09,5.14c1.72,5.33,13.39,39.84,13.39,39.84l19.12-2.15S1492.67,344.83,1494.11,339.35Z" transform="translate(0 0)"/><path class="cls-3" d="M1577.86,481.55s-13.2,37.56-24.06,32.15-71.88-67.62-72.48-70.63-4.83-79.36-4.83-79.36l24.13-4.81,13.88,62.53s44.66,42.68,53.71,46.89A16.77,16.77,0,0,1,1577.86,481.55Z" transform="translate(0 0)"/><path class="cls-3" d="M1542.23,668.36c-7.3,0-10-1-14.87-2.47,0,0,13.92-78.43,22-156.19,3.2-30.72,6.17-43.32,18.84-41.09,3.67.64,13.59,4.42,17.2,5-31.85,90.11-32,159.47-36.47,179.58C1546.67,663.31,1544.7,668.42,1542.23,668.36Z" transform="translate(0 0)"/><path class="cls-12" d="M1588.76,460l-3.34,13.62s-.76,11.85,4.74,12.92c6.64,1.28,16.5-8.65,16.5-8.65l5.71-38.39Z" transform="translate(0 0)"/><path class="cls-12" d="M1588.76,460l-3.34,13.62s-.76,11.85,4.74,12.92c6.64,1.28,16.5-8.65,16.5-8.65l5.71-38.39Z" transform="translate(0 0)"/><path class="cls-8" d="M1612.31,439.7,1588.76,460l-2.49,10.17C1595.27,468,1608.1,458.12,1612.31,439.7Z" transform="translate(0 0)"/><path class="cls-12" d="M1588.68,404.37c-5.7,0-10.82,3.93-12.83,9.62a120.84,120.84,0,0,0-5.13,19.71c-2.5,14.76,5.91,28.28,13.23,29.36s24.74-3.77,28.6-24.68c1.65-9,3.82-20.73-3.55-26.91C1603.26,406.67,1595.23,404.39,1588.68,404.37Z" transform="translate(0 0)"/><path class="cls-20" d="M1610.17,454.31s25.79-23,26.91-40.93-15.45-27.58-29.63-28.08a95.42,95.42,0,0,0-17.36.9c-14.2,1.79-23.41,8.08-20.17,19.72,4.35,15.63,33.84,2.45,39.87,7.3,5,4-3.1,13.63,1.74,17.3,4.54,3.45,2.23,2.28.72,8.85A116.15,116.15,0,0,0,1610.17,454.31Z" transform="translate(0 0)"/><path class="cls-12" d="M1620.11,433.49c-.64,4.3-3.27,7.48-5.87,7.1s-4.2-4.19-3.56-8.49,3.27-7.48,5.87-7.09S1620.75,429.19,1620.11,433.49Z" transform="translate(0 0)"/><path class="cls-8" d="M1491.88,324.38s-3.58,2.47-7,8.47c0,0-11.7-5.48-11.61-7.72.11-3,11.85,1,11.85,1Z" transform="translate(0 0)"/><path class="cls-2" d="M1518.09,311.59,1471.29,335c-10.22,5.26-18.42,9.35-23.69-.87l-22.16-42.67c-5.27-10.22-6.67-15.66,1.16-20.56l55.29-27.31c10.23-5.27,19.08-8.57,24.71,0l24.68,48.17C1535.41,302.05,1528.32,306.33,1518.09,311.59Z" transform="translate(0 0)"/><polygon class="cls-17" points="1427.88 295.72 1511.78 253.42 1507.72 245.54 1423.89 287.98 1427.88 295.72"/><path class="cls-12" d="M1494.91,315.54l2.74,6.73-6.28,3.25s1.59-3.19,1-4.06C1489.26,316.67,1491.92,312,1494.91,315.54Z" transform="translate(0 0)"/><path class="cls-8" d="M765.33,190.84c-6,1.92-11.25-2.17-13.21-8.23-3.63-11.26,6.93-17.45,14-13.11C773.84,174.18,774.66,187.83,765.33,190.84ZM757,152.24q.69,3.16-2.94,4.33c-2.67.86-4,1.15-5.3-1.23q-12.13-22.11-14.23-28.62C721.46,85.17,719.26,81.54,720.81,81c2.31-.74,6.07-1.09,8.47-1.86s5.74-2.72,8.05-3.47c1.25-.4,1.84,2.56,4.77,11.25C752.77,118.61,754.14,135.35,757,152.24Z" transform="translate(0 0)"/><path class="cls-4" d="M1000.91,98.42a26.78,26.78,0,0,1,23,.6c11.1,5.44,14.42,18,9.38,28.29-5.83,11.9-23.16,20.86-56.23,19.82-21.08-25.51-24.61-44.7-18.78-56.59,5-10.28,17-15.35,28.12-9.91A26.82,26.82,0,0,1,1000.91,98.42Z" transform="translate(0 0)"/><path class="cls-4" d="M906.82,58.12A277.72,277.72,0,0,0,933.52,75c2.78,1.54,7.15,5,10.39,3.72a3.34,3.34,0,0,0,2.27-4c-.77-3.44-5.46-4.86-8.26-6.41-8.54-4.75-18-10.52-27.18-16.9a3.91,3.91,0,0,0-5.31,1.39,4,4,0,0,0,1.39,5.32Z" transform="translate(0 0)"/><path class="cls-4" d="M1037.15,159.24c4,2.34,8.13,4.6,12.22,6.87,3.9,2.18,8.14,5.44,12.58,6.16,3.27.54,5.54-3,3.24-5.58-3-3.4-7.9-5.25-11.82-7.42-4.09-2.27-8.17-4.54-12.3-6.74-4.4-2.35-8.27,4.2-3.92,6.71Z" transform="translate(0 0)"/><path class="cls-4" d="M914.65,132.54c9.92-5.73,17.64-4.89,24.24-5.52a3.15,3.15,0,0,0,.83-6.15c-9.3-3.43-20.83.17-29,5-4.29,2.54-.42,9.18,3.9,6.68Z" transform="translate(0 0)"/><path class="cls-4" d="M949.63,180.36a34.41,34.41,0,0,1,8.89-11.12c2.29-1.87,10.9-5.86,6.82-9.8-3.85-3.71-10.43,2.35-13.26,4.88a40.73,40.73,0,0,0-9.19,12.1c-2.23,4.48,4.45,8.43,6.74,3.94Z" transform="translate(0 0)"/><path class="cls-4" d="M998.57,174.05q2,4.38,4,8.74c1.35,2.91,2.17,6.52,5.5,7.58,1.87.6,3.47-.72,4.13-2.34,1.19-2.95-1.51-6.61-2.75-9.25q-2.06-4.36-4.09-8.72c-.9-1.93-3.68-2.42-5.4-1.41a4,4,0,0,0-1.42,5.4Z" transform="translate(0 0)"/><path class="cls-4" d="M986.87,57.73c3-25.68,3.24-25.69,2.45-28.38a3.44,3.44,0,0,0-6.22-.81c-1.45,2.56-1.16,2.16-4.23,29.19-.24,2.15,2,4,4,4,2.37,0,3.74-1.85,4-4Z" transform="translate(0 0)"/><path class="cls-4" d="M1024.18,78.33a58.72,58.72,0,0,0,8.91-9.06c2.46-3.1,6.65-7.52,4.81-11.67a2.94,2.94,0,0,0-2.63-1.51c-4,.34-6,5.32-8.27,8.17a70.18,70.18,0,0,1-8.29,8.6,3.9,3.9,0,0,0,0,5.47,4,4,0,0,0,5.47,0Z" transform="translate(0 0)"/><path class="cls-4" d="M1074.76,111.15c1.49-1.24,1.06-3.46,0-4.76-2.19-2.69-7.4-2-10.54-2a67.21,67.21,0,0,0-10.87,1.2c-2.08.38-3.25,2.89-2.73,4.8.62,2.23,2.71,3,4.8,2.72C1069.09,111.11,1071.06,114.23,1074.76,111.15Z" transform="translate(0 0)"/><path class="cls-5" d="M670.71,75.16c0,3.46-3.27,6.26-7.31,6.26s-7.3-2.8-7.3-6.26,3.27-6.27,7.3-6.27S670.71,71.7,670.71,75.16Z" transform="translate(0 0)"/><path class="cls-21" d="M837.73,8.35c0,4.61-4.68,8.35-10.44,8.35S816.85,13,816.85,8.35,821.52,0,827.29,0,837.73,3.74,837.73,8.35Z" transform="translate(0 0)"/><path class="cls-12" d="M311.32,253.42s-3,15.05-5.44,20.58c-1.26,2.91-6.83,14.12-6.83,14.12l-2.6,30.47-22.81-3.06s7.72-21.95,5.1-28.55c-2.06-5.19-3.33-16.07-3.2-18.8C276,258.9,311.32,253.42,311.32,253.42Z" transform="translate(0 0)"/><path class="cls-12" d="M41.07,274.55s8.86,12.53,13.3,16.62c2.34,2.14,12,10.14,12,10.14l14.72,26.81,19.62-12s-16-16.95-16.24-24c-.22-5.58-3.46-16.05-4.68-18.48C75.59,265.25,41.07,274.55,41.07,274.55Z" transform="translate(0 0)"/><path class="cls-22" d="M211.34,365.18s-11.88-12.53-21.44,2.71c0,0-7.37-4.13-12.54,3.23,0,0-13.3-4-16.53,15.9,0,0-6.85-1.3-7.76,6.84a20.18,20.18,0,0,0,3.23,13.57s-3.84,2.88-2.1,10.37c1.49,6.36,6.75,7.33,6.75,7.33s1.43,10.72,6.08,13.95,11,1.68,11,1.68,1.68,5.82,7.11,5.3,12.14-5.68,18.21-3.36,21.84-.13,21.84-.13,17.7-7.88,12.4-26c0,0,9.3-8.4,1.16-18.47,0,0,6-15.77-5.81-25.07S211.34,365.18,211.34,365.18Z" transform="translate(0 0)"/><path class="cls-12" d="M79.24,807.81s-20.49-2.34-23.89-4-20.59,14.76-17.18,23c1.92,4.65,8,4.06,8,4.06l4.91-4.8,26,5.42Z" transform="translate(0 0)"/><path class="cls-12" d="M196.2,894.17s-10.79,17.57-13.74,19.94S187.12,939,196,939.42c5,.22,7.06-5.54,7.06-5.54l-2.27-6.48,15.91-21.27Z" transform="translate(0 0)"/><path class="cls-22" d="M183.11,913.42s6.2,7.91,9.58,11.06a114.78,114.78,0,0,0,10,8S209,944,210.71,948c3.86,8.93,8.19,18.88,7.56,23.88-.2,1.61-3.8,3.3-6.81,2.38-12.51-3.84-44.49-33.1-48.53-40.95C158.28,924.26,183.11,913.42,183.11,913.42Z" transform="translate(0 0)"/><path class="cls-7" d="M274.4,645.7c-1.16-3.25-2.28-6.26-3.35-9.09-13.31,2.91-28.33,6.1-43.79,9.39l-1.88,56.66C225.39,698.29,237,793,237,793s-31.58,62.72-52.12,101.48C193.31,905,199.79,909.63,212,916.8c31.89-38.23,72.64-105.61,74.37-117.24C287.37,792.87,288.27,684.71,274.4,645.7Z" transform="translate(0 0)"/><path class="cls-8" d="M155.66,662.08c3.61,39.28,9.59,98.73,10.69,118.74C141,784.48,81,802.52,69.78,802.5c-4.24,9.49-6.58,21-3.65,30.46.58,1.87,118.35,5.62,148.75-13.78,7.93-5.06,10.38-59.31,10.5-116.52L227.26,646C201.51,651.49,177.82,656.88,155.66,662.08Z" transform="translate(0 0)"/><path class="cls-23" d="M240.23,460.84l-28.9,4.35s-21.78.34-27.59.4c-.51,0-23.18,110.59-28.69,152.21s-1.24,49-1.24,49,38.43,8.64,66.87,6.12c29.57-2.62,62.84-18.58,62.84-18.58s-34.27-78.15-39.28-103.12S240.23,460.84,240.23,460.84Z" transform="translate(0 0)"/><path class="cls-13" d="M299.65,306.52S297.11,409,294,415.28c-4.52,9.17-36.85,74.58-36.85,74.58s24.32,101.76,34.54,136.91c1,3.54,5.59,26.4,5.59,28.63,0,4.94-21.51,11.21-24.07,10.84-2.28-.34-21-97.14-33-144.51A135.71,135.71,0,0,0,219.62,477l-8.33-11.84,49.39-59.77s10.69-94.59,10.69-100.5C271.37,303.31,296.55,300.71,299.65,306.52Z" transform="translate(0 0)"/><path class="cls-13" d="M183.74,465.59,134.25,391s-32.12-78.4-32.91-81.3-26,.41-34-.37C64.78,309,101,391.6,104.78,405.36c4.51,16.26,28.66,79.86,28.66,79.86s16.69,38.09,14.09,67.51c-4.32,48.88-12.9,119.31-10.81,121.42,13,8.16,53.74,7.87,56.89,2.8C228.38,621,183.74,465.59,183.74,465.59Z" transform="translate(0 0)"/><path class="cls-12" d="M209.33,450.27l2.16,16s4.82,23-1.38,27.43-26.38-28.09-26.38-28.09l2.14-40.45Z" transform="translate(0 0)"/><path class="cls-8" d="M185.18,438.23c5.12,13.8,17.32,22.28,26,25.57l-1.83-13.54-23.46-25.14Z" transform="translate(0 0)"/><path class="cls-22" d="M152.86,397.63c0,6.16,3.51,11.16,7.83,11.16s7.82-5,7.82-11.16-3.5-11.15-7.82-11.15S152.86,391.47,152.86,397.63Z" transform="translate(0 0)"/><path class="cls-22" d="M176.34,373.66c0,3.54,4.26,6.41,9.52,6.41s9.52-2.87,9.52-6.41-4.26-6.42-9.52-6.42S176.34,370.11,176.34,373.66Z" transform="translate(0 0)"/><path class="cls-12" d="M200.2,382.63a21.33,21.33,0,0,1,27.91,17,161.84,161.84,0,0,1,1.74,20.48c.33,18.64-9.32,36.79-17.78,36.79s-31.87-12.07-32.72-38.54C178.83,402,187,387.17,200.2,382.63Z" transform="translate(0 0)"/><path class="cls-12" d="M185.59,420.45c0,4.11-2.72,7.45-6.09,7.45s-6.09-3.34-6.09-7.45,2.73-7.45,6.09-7.45S185.59,416.34,185.59,420.45Z" transform="translate(0 0)"/><path class="cls-22" d="M236.87,373.35c8.75,6.93,11.81,17.45,6.85,23.51s-16.08,5.35-24.82-1.57-11.81-17.46-6.85-23.52S228.13,366.42,236.87,373.35Z" transform="translate(0 0)"/><path class="cls-22" d="M214,379c0,3-3.64,5.45-8.12,5.45s-8.12-2.44-8.12-5.45,3.64-5.45,8.12-5.45S214,376,214,379Z" transform="translate(0 0)"/><ellipse class="cls-22" cx="231.24" cy="402.2" rx="6.93" ry="7.01"/><path class="cls-22" d="M56.25,804.1s-4.54,9-6,13.36a114.06,114.06,0,0,0-3.06,12.42s-7.74,10.6-10.64,13.86c-6.46,7.27-14.37,15.87-19.16,17.42-1.54.5-5.91-.81-5.87-4.2.16-13.09,12.72-55.75,18.13-62.73C35.93,786.18,56.25,804.1,56.25,804.1Z" transform="translate(0 0)"/><path class="cls-8" d="M46.13,280.79s6,6.79,13.22,7.83,13.57-6.43,13.57-6.43Z" transform="translate(0 0)"/><path class="cls-8" d="M277.56,268.05l5,7.61s18.18,1.13,23.75-12.05Z" transform="translate(0 0)"/><path class="cls-10" d="M283.8,271.19a347.57,347.57,0,0,0-216,13,21.27,21.27,0,0,1-27.36-10.9Q20.88,228.18,1.34,183c-4.67-10.48,3.23-24.56,18-30.37a477.49,477.49,0,0,1,296.76-17.91c15.33,4,24.87,17,21.49,28q-13.95,47.18-27.91,94.35A21.27,21.27,0,0,1,283.8,271.19Z" transform="translate(0 0)"/><path class="cls-12" d="M69.1,286.88A19.36,19.36,0,0,0,75,274.42c0-.94-2.53-9.36.71-9.93,5.38-.95,7,19.09,7,19.09A71.58,71.58,0,0,1,69.1,286.88Z" transform="translate(0 0)"/><path class="cls-12" d="M47.56,281.83c3.75.05,7.66-.52,8-1.88s-1.43-2.16-3.53-2.52c1.52-.23,2.61-.65,2.79-1.33.39-1.48-1.48-2.26-3.67-2.68,1-.21,1.78-.56,1.94-1.09,1-3.27-9.39-4-9.39-4s-5.71-1-6.23,1.24a4.25,4.25,0,0,0,1.19,2.37,2.55,2.55,0,0,1,1,3.15,1,1,0,0,0-.06.23.68.68,0,0,0,.3.64c1,.8.66,3.88.63,4.05a3.13,3.13,0,0,0,1.11,1.89c3.13,3,21.76,18.23,24.93,19.38,3.82,1.39.65-10.18.65-10.18S48.5,285.15,47.56,281.83Z" transform="translate(0 0)"/><path class="cls-12" d="M290.68,276.05s-7.08-2.24-10.46-9c-.42-.84-1.48-9.58-4.67-8.79-5.31,1.31,1.31,20.3,1.31,20.3A72.18,72.18,0,0,0,290.68,276.05Z" transform="translate(0 0)"/><path class="cls-12" d="M308.33,262.7c-3.41,1.57-7.22,2.63-8.06,1.52s.43-2.56,2.21-3.74c-1.48.41-2.65.46-3.09-.08-1-1.19.44-2.67,2.27-3.94-1.05.24-1.85.21-2.22-.21-2.23-2.58,7-7.46,7-7.46s4.83-3.19,6.2-1.39a4.29,4.29,0,0,1-.13,2.65c-.75,1,.33,2.31.35,2.39a3.2,3.2,0,0,1,.11,1.8c-.55,1.12,1,3.81,1.07,4a3.11,3.11,0,0,1-.25,2.18c-1.66,4-12.51,25.48-14.94,27.81-2.93,2.82-4.72-9-4.72-9S308.81,266.12,308.33,262.7Z" transform="translate(0 0)"/><text class="cls-24" transform="translate(50.05 221.28) rotate(-4.17)">acce<tspan class="cls-25" x="116.87" y="0">p</tspan><tspan class="cls-26" x="152.76" y="0">t</tspan><tspan x="177.57" y="0">ed</tspan></text><text class="cls-27" transform="translate(922.49 374.5) rotate(3.28)">OK</text></svg>